<svg width="449" height="855" viewBox="0 0 449 855" fill="none" xmlns="http://www.w3.org/2000/svg">
<path d="M75.9159 675.45C41.81 675.45 14.1575 643.125 14.1575 603.251C14.1575 578.973 24.4087 557.493 40.1254 544.405C50.2225 535.995 62.5752 531.05 75.9159 531.05C89.2549 531.05 101.597 535.999 111.688 544.405C114.344 546.618 116.847 549.072 119.173 551.744H316.374C338.856 551.744 357.083 573.049 357.083 599.334C357.083 625.616 338.856 646.918 316.374 646.918H125.084C113.806 664.256 95.9812 675.45 75.9159 675.45ZM23.1513 603.128C23.1496 603.17 23.1496 603.21 23.1496 603.251C23.1496 636.991 46.545 664.341 75.4041 664.341C104.265 664.341 127.664 636.991 127.664 603.251C127.664 582.94 119.185 564.944 106.139 553.838C97.5014 546.42 86.8383 542.04 75.3007 542.04C46.5009 542.04 23.1496 569.337 23.1496 603.007C23.1496 603.047 23.1496 603.087 23.1513 603.128Z" fill="url(#paint0_linear)"/>
<path d="M105.394 600.875C105.394 621.598 91.836 638.4 75.1109 638.4C58.3833 638.4 44.832 621.598 44.832 600.874C44.832 580.149 58.3833 563.35 75.1109 563.35C91.836 563.35 105.394 580.149 105.394 600.874" fill="#36B979"/>
<path d="M95 262.501C95 285.423 78.881 304 58.9972 304C39.1106 304 23 285.423 23 262.499C23 239.582 39.1106 221 58.9972 221C78.881 221 95 239.582 95 262.499" fill="#48C1F0"/>
<path d="M59.917 333.45C26.828 333.45 0 301.763 0 262.676C0 238.877 9.94561 217.821 25.1937 204.992C34.9897 196.747 46.9741 191.9 59.917 191.9C72.8583 191.9 84.8329 196.751 94.6223 204.992C97.1992 207.161 99.6275 209.566 101.885 212.185H293.206C315.017 212.185 332.701 233.071 332.701 258.836C332.701 284.6 315.017 305.481 293.206 305.481H107.619C96.6775 322.477 79.3841 333.45 59.917 333.45ZM8.72565 262.556C8.724 262.597 8.724 262.635 8.724 262.676C8.724 295.75 31.4218 322.56 59.4205 322.56C87.4208 322.56 110.122 295.75 110.122 262.676C110.122 242.766 101.896 225.125 89.2393 214.238C80.8589 206.967 70.5137 202.673 59.3202 202.673C31.3791 202.673 8.724 229.431 8.724 262.437C8.724 262.476 8.724 262.515 8.72565 262.556Z" fill="url(#paint1_linear)"/>
<path d="M167.153 855C133.047 855 105.394 823.313 105.394 784.226C105.394 760.427 115.646 739.371 131.362 726.542C141.459 718.297 153.812 713.45 167.153 713.45C180.492 713.45 192.835 718.301 202.925 726.542C205.581 728.711 208.084 731.116 210.41 733.735H407.611C430.093 733.735 448.32 754.621 448.32 780.386C448.32 806.15 430.093 827.031 407.611 827.031H216.321C205.043 844.027 187.218 855 167.153 855ZM114.388 784.106C114.387 784.147 114.387 784.185 114.387 784.226C114.387 817.3 137.782 844.11 166.641 844.11C195.502 844.11 218.901 817.3 218.901 784.226C218.901 764.316 210.422 746.675 197.376 735.788C188.738 728.517 178.075 724.223 166.538 724.223C137.738 724.223 114.387 750.981 114.387 783.987C114.387 784.026 114.387 784.065 114.388 784.106Z" fill="url(#paint2_linear)"/>
<path d="M167.137 842.65C138.287 842.65 114.889 816.317 114.833 783.81C114.889 751.238 138.331 724.85 167.24 724.85C178.761 724.85 189.415 729.04 198.067 736.143C211.027 746.874 219.441 764.175 219.441 783.693C219.441 816.254 196.022 842.65 167.137 842.65ZM172.967 755.145C155.376 755.145 141.119 771.218 141.119 791.044C141.119 810.87 155.376 826.942 172.967 826.942C190.554 826.942 204.813 810.87 204.813 791.044C204.813 771.218 190.554 755.145 172.967 755.145Z" fill="url(#paint3_radial)"/>
<path d="M205.283 784.225C205.283 806.523 188.203 824.6 167.134 824.6C146.061 824.6 128.99 806.523 128.99 784.225C128.99 761.929 146.061 743.85 167.134 743.85C188.203 743.85 205.283 761.929 205.283 784.225Z" fill="#C64A7F"/>
<path d="M136.695 141.298C112.691 141.298 92.336 120.89 85.2564 92.6362C85.1168 92.0798 84.9832 91.5196 84.854 90.9574C83.3781 84.5269 82.5852 77.7087 82.5852 70.6501C82.5852 31.631 106.813 -4.57764e-05 136.695 -4.57764e-05C151.461 -4.57764e-05 164.833 7.73132 174.594 20.2492H347.372C367.069 20.2492 383.038 41.0973 383.038 66.8154C383.038 92.5335 367.069 113.38 347.372 113.38H179.774C169.892 130.343 154.275 141.298 136.695 141.298ZM90.4651 70.5299C90.4636 70.5687 90.4636 70.6094 90.4636 70.6501C90.4636 103.667 110.961 130.43 136.246 130.43C161.533 130.43 182.033 103.667 182.033 70.6501C182.033 50.9127 174.704 33.4068 163.405 22.5193C155.797 15.1273 146.368 10.7536 136.156 10.7536C110.923 10.7536 90.4636 37.4624 90.4636 70.4097C90.4636 70.4504 90.4636 70.4892 90.4651 70.5299Z" fill="url(#paint4_linear)"/>
<path d="M165.269 70.6299C165.269 91.2232 152.481 107.92 136.707 107.92C120.93 107.92 108.149 91.2232 108.149 70.6285C108.149 50.0337 120.93 33.3401 136.707 33.3401C152.481 33.3401 165.269 50.0337 165.269 70.6285" fill="#EEB022"/>
<path d="M32.1696 430.761C32.1696 465.533 55.4202 493.72 84.0999 493.72C112.782 493.72 136.035 465.533 136.035 430.759C136.035 395.989 112.781 367.798 84.0999 367.798C55.4202 367.798 32.1696 395.989 32.1696 430.759" fill="#C62D2D"/>
<path d="M110.218 428.668C110.218 449.529 97.9119 466.442 82.732 466.442C67.55 466.442 55.2507 449.529 55.2507 428.667C55.2507 407.805 67.55 390.894 82.732 390.894C97.9119 390.894 110.218 407.805 110.218 428.667" fill="#EE5640"/>
<path d="M85.589 504.45C59.135 504.45 36.7016 483.045 28.8992 453.411C28.7454 452.827 28.5981 452.24 28.4557 451.65C26.8292 444.906 25.9553 437.754 25.9553 430.351C25.9553 389.426 52.6565 356.25 85.589 356.25C101.863 356.25 116.6 364.359 127.358 377.488H317.775C339.483 377.488 357.083 399.355 357.083 426.329C357.083 453.303 339.483 475.168 317.775 475.168H133.066C122.176 492.96 104.964 504.45 85.589 504.45ZM34.6397 430.225C34.6381 430.266 34.6381 430.308 34.6381 430.351C34.6381 464.981 57.2286 493.051 85.0948 493.051C112.963 493.051 135.557 464.981 135.557 430.351C135.557 409.65 127.479 391.288 115.026 379.869C106.641 372.116 96.2502 367.529 84.995 367.529C57.186 367.529 34.6381 395.542 34.6381 430.099C34.6381 430.142 34.6381 430.182 34.6397 430.225Z" fill="url(#paint5_linear)"/>
<path fill-rule="evenodd" clip-rule="evenodd" d="M70.3423 418.079V440.895L78.4803 427.553L70.3423 418.079ZM82.6146 432.337L79.0472 428.309L71.2853 440.908H93.9514L86.1885 428.189L82.6146 432.337ZM86.7211 427.553L94.8591 440.896V418.079L86.7211 427.553ZM94.797 416.877H70.4376L82.62 430.96L94.798 416.877" fill="#F4F4F4"/>
<defs>
<linearGradient id="paint0_linear" x1="276.718" y1="712.812" x2="56.1148" y2="524.11" gradientUnits="userSpaceOnUse">
<stop stop-color="#19A9AC"/>
<stop offset="1" stop-color="#37B97A"/>
</linearGradient>
<linearGradient id="paint1_linear" x1="254.732" y1="370.075" x2="38.84" y2="187.301" gradientUnits="userSpaceOnUse">
<stop stop-color="#9664B8"/>
<stop offset="1" stop-color="#48C2F0"/>
</linearGradient>
<linearGradient id="paint2_linear" x1="367.955" y1="891.625" x2="151.079" y2="702.375" gradientUnits="userSpaceOnUse">
<stop stop-color="#71438A"/>
<stop offset="1" stop-color="#C64B7F"/>
</linearGradient>
<radialGradient id="paint3_radial" cx="0" cy="0" r="1" gradientUnits="userSpaceOnUse" gradientTransform="translate(168.714 786.206) scale(56.9774 64.2254)">
<stop stop-color="white"/>
<stop offset="0.795" stop-color="white"/>
<stop offset="1" stop-color="#2F2E2F"/>
</radialGradient>
<linearGradient id="paint4_linear" x1="312.658" y1="177.865" x2="101.704" y2="16.2954" gradientUnits="userSpaceOnUse">
<stop stop-color="#E5392D"/>
<stop offset="1" stop-color="#EFB022"/>
</linearGradient>
<linearGradient id="paint5_linear" x1="279.517" y1="542.803" x2="55.6441" y2="362.633" gradientUnits="userSpaceOnUse">
<stop stop-color="#EE5640"/>
<stop offset="1" stop-color="#F1447C"/>
</linearGradient>
</defs>
</svg>
