<svg width="190" height="140" viewBox="0 0 302 205" fill="none" xmlns="http://www.w3.org/2000/svg">
<path d="M54.6947 141.298C30.6912 141.298 10.336 120.89 3.25638 92.6362C3.11681 92.0798 2.98318 91.5196 2.854 90.9574C1.3781 84.5269 0.585205 77.7087 0.585205 70.6501C0.585205 31.631 24.8129 -4.57764e-05 54.6947 -4.57764e-05C69.4611 -4.57764e-05 82.8333 7.73132 92.5945 20.2492H265.372C285.069 20.2492 301.038 41.0973 301.038 66.8154C301.038 92.5335 285.069 113.38 265.372 113.38H97.7735C87.8921 130.343 72.2748 141.298 54.6947 141.298ZM8.46511 70.5299C8.46362 70.5687 8.46362 70.6094 8.46362 70.6501C8.46362 103.667 28.9614 130.43 54.2463 130.43C79.5326 130.43 100.033 103.667 100.033 70.6501C100.033 50.9127 92.7044 33.4068 81.405 22.5193C73.7968 15.1273 64.3682 10.7536 54.1557 10.7536C28.9228 10.7536 8.46362 37.4624 8.46362 70.4097C8.46362 70.4504 8.46362 70.4892 8.46511 70.5299Z" fill="url(#paint0_linear)"/>
<path d="M83.2691 70.6299C83.2691 91.2232 70.4812 107.92 54.7066 107.92C38.9298 107.92 26.1486 91.2232 26.1486 70.6285C26.1486 50.0337 38.9298 33.3401 54.7066 33.3401C70.4812 33.3401 83.2691 50.0337 83.2691 70.6285" fill="#EEB022"/>
<defs>
<linearGradient id="paint0_linear" x1="230.658" y1="177.865" x2="19.7044" y2="16.2954" gradientUnits="userSpaceOnUse">
<stop stop-color="#E5392D"/>
<stop offset="1" stop-color="#EFB022"/>
</linearGradient>
</defs>
</svg>